# xmcd
#
# Track frame offsets: 
#        150
#        27825
#        52202
#        75453
#        95104
#        118729
#        139356
#        161858
#        184884
#        201460
#        223960
#        242936
#        264838
#        293788
#
# Disc length: 4165 seconds
#
# Revision: 0
# Processed by: cddbd v1.5.2PL0 Copyright (c) Steve Scherf et al.
# Submitted via: ExactAudioCopy v1.0b3
#
DISCID=e210430e
DTITLE=Various Artist - Relax 3 - The Fragrance Of Fønix Musik 
DYEAR=2008
DGENRE=New Age
TTITLE0=Eventyr - Gliding Eagle
TTITLE1=Henning Flintholm - Mermaid Lullaby
TTITLE2=Lars Marco - Garden In Heaven
TTITLE3=Time Out - Rain and Sun
TTITLE4=Henrik Bach Petersen - Lullaby Island
TTITLE5=Stuart Goodstein - Valentina
TTITLE6=Povl Vinther and Carsten Rosenlund - Desert Flower
TTITLE7=Frantz Amathy - Jewel of the Depths
TTITLE8=Björn J:son Lindh and Torbjörn Carlsson - Clarity
TTITLE9=Staffan Biörk-Jullander - Quiet Summer Rain
TTITLE10=Frank Lorentzen - Chakra Journey
TTITLE11=Deva Yoko - Harvest Moon
TTITLE12=Gopal - Journey Inward
TTITLE13=Divine Mantras - Om Tryambaka Homa
EXTD=
EXTT0=
EXTT1=
EXTT2=
EXTT3=
EXTT4=
EXTT5=
EXTT6=
EXTT7=
EXTT8=
EXTT9=
EXTT10=
EXTT11=
EXTT12=
EXTT13=
PLAYORDER=
